# xmcd CD database file
#
# Track frame offsets:
#	150
#	11110
#	25330
#	51570
#	74115
#	89250
#	119482
#	135460
#	155997
#	172175
#	192935
#	204317
#	218627
#	236455
#	270520
#	291077
#
# Disc length: 3997 seconds
#
# Revision: 0
# Processed by: cddbd v1.4PL0 Copyright (c) Steve Scherf et al.
# Submitted via: CDex 1.40Release
#
DISCID=f80f9b10
DTITLE=Seventh Son - Seventh Son
DYEAR=1900
DGENRE=Blues
TTITLE0=Rocket 88
TTITLE1=I Believe To My Soul
TTITLE2=Witness
TTITLE3=Dark Ride
TTITLE4='Taint Nobody's Business
TTITLE5=Animal Within
TTITLE6=300 Pounds of Heavenly Joy
TTITLE7=Feels Like Rain
TTITLE8=Help The Poor
TTITLE9=Just To Be With You
TTITLE10=Born In Chicago
TTITLE11=Last Time
TTITLE12=Rearview
TTITLE13=Full Time Lover
TTITLE14=Thigh High Leather Boots
TTITLE15=Pole Barn Boogie
EXTD=ID3G: 0
EXTT0=
EXTT1=
EXTT2=
EXTT3=
EXTT4=
EXTT5=
EXTT6=
EXTT7=
EXTT8=
EXTT9=
EXTT10=
EXTT11=
EXTT12=
EXTT13=
EXTT14=
EXTT15=
PLAYORDER=
